<svg xmlns="http://www.w3.org/2000/svg" viewBox="0 0 256 256" role="img" aria-label="StickyPlace logo mark">
  <defs>
    <linearGradient id="stickyplaceMarkBg" x1="0" y1="0" x2="1" y2="1">
      <stop offset="0" stop-color="#2563eb"/>
      <stop offset="1" stop-color="#14b8a6"/>
    </linearGradient>
  </defs>

  <rect x="20" y="20" width="216" height="216" rx="56" fill="url(#stickyplaceMarkBg)"/>
  <rect x="52" y="52" width="152" height="152" rx="38" fill="#eff6ff" opacity="0.95"/>

  <rect x="92" y="88" width="72" height="64" rx="14" fill="#0f172a"/>
  <rect x="102" y="98" width="52" height="44" rx="8" fill="#dbeafe"/>

  <g fill="#0f172a">
    <rect x="84" y="94" width="8" height="12" rx="3"/>
    <rect x="84" y="114" width="8" height="12" rx="3"/>
    <rect x="84" y="134" width="8" height="12" rx="3"/>

    <rect x="164" y="94" width="8" height="12" rx="3"/>
    <rect x="164" y="114" width="8" height="12" rx="3"/>
    <rect x="164" y="134" width="8" height="12" rx="3"/>

    <rect x="106" y="80" width="12" height="8" rx="3"/>
    <rect x="122" y="80" width="12" height="8" rx="3"/>
    <rect x="138" y="80" width="12" height="8" rx="3"/>

    <rect x="106" y="152" width="12" height="8" rx="3"/>
    <rect x="122" y="152" width="12" height="8" rx="3"/>
    <rect x="138" y="152" width="12" height="8" rx="3"/>
  </g>
</svg>
