<svg xmlns="http://www.w3.org/2000/svg" viewBox="0 0 64 64" role="img" aria-label="StickyPlace pad and chip favicon">
  <defs>
    <linearGradient id="bg" x1="0" y1="0" x2="1" y2="1">
      <stop offset="0" stop-color="#2563eb"/>
      <stop offset="1" stop-color="#14b8a6"/>
    </linearGradient>
  </defs>
  <rect x="6" y="6" width="52" height="52" rx="14" fill="url(#bg)"/>
  <rect x="14" y="14" width="36" height="36" rx="9" fill="#eff6ff" opacity="0.9"/>
  <rect x="24" y="23" width="20" height="18" rx="4" fill="#0f172a"/>
  <rect x="27" y="26" width="14" height="12" rx="2" fill="#dbeafe"/>
  <g fill="#0f172a">
    <rect x="22" y="25" width="2" height="3" rx="1"/>
    <rect x="22" y="30" width="2" height="3" rx="1"/>
    <rect x="22" y="35" width="2" height="3" rx="1"/>
    <rect x="44" y="25" width="2" height="3" rx="1"/>
    <rect x="44" y="30" width="2" height="3" rx="1"/>
    <rect x="44" y="35" width="2" height="3" rx="1"/>
    <rect x="28" y="21" width="3" height="2" rx="1"/>
    <rect x="33" y="21" width="3" height="2" rx="1"/>
    <rect x="38" y="21" width="3" height="2" rx="1"/>
    <rect x="28" y="41" width="3" height="2" rx="1"/>
    <rect x="33" y="41" width="3" height="2" rx="1"/>
    <rect x="38" y="41" width="3" height="2" rx="1"/>
  </g>
</svg>
